<svg width="194" height="160" viewBox="0 0 194 160" xmlns="http://www.w3.org/2000/svg" xmlns:sketch="http://www.bohemiancoding.com/sketch/ns"><title>pr-logo-white</title><desc>Created with Sketch.</desc><g sketch:type="MSLayerGroup" fill="#E6E6E6"><path d="M32.4 155.661h-2.801v4.059h-1.302v-11.503h4.316c2.603 0 4.316 1.381 4.316 3.665 0 2.498-2.076 3.78-4.53 3.78zm.115-6.245h-2.916v5.061h2.85c1.911 0 3.163-1.019 3.163-2.547 0-1.66-1.235-2.514-3.097-2.514z" sketch:type="MSShapeGroup"/><path d="M54.411 159.72l-3.344-4.47h-3.295v4.47h-1.301v-11.503h4.959c2.537 0 4.168 1.364 4.168 3.435 0 1.923-1.318 3.04-3.13 3.369l3.542 4.7h-1.598zm-3.081-10.304h-3.559v4.667h3.542c1.73 0 2.965-.888 2.965-2.383 0-1.43-1.087-2.284-2.949-2.284z" sketch:type="MSShapeGroup"/><path d="M74.029 149.4h-7.035v3.928h6.294v1.183h-6.294v4.026h7.117v1.183h-8.418v-11.503h8.336v1.183" sketch:type="MSShapeGroup"/><path d="M88.153 153.344c2.57.559 3.756 1.496 3.756 3.27 0 1.988-1.648 3.27-3.937 3.27-1.829 0-3.328-.608-4.712-1.841l.807-.953c1.203 1.085 2.356 1.627 3.954 1.627 1.549 0 2.57-.805 2.57-1.972 0-1.085-.577-1.693-2.998-2.202-2.652-.575-3.872-1.43-3.872-3.336 0-1.841 1.598-3.155 3.789-3.155 1.68 0 2.883.477 4.053 1.413l-.758 1.003c-1.071-.871-2.142-1.249-3.328-1.249-1.499 0-2.455.822-2.455 1.873 0 1.101.593 1.709 3.13 2.251" sketch:type="MSShapeGroup"/><path d="M105.958 153.344c2.57.559 3.756 1.496 3.756 3.27 0 1.988-1.647 3.27-3.937 3.27-1.829 0-3.328-.608-4.712-1.841l.807-.953c1.203 1.085 2.356 1.627 3.954 1.627 1.549 0 2.57-.805 2.57-1.972 0-1.085-.577-1.693-2.998-2.202-2.652-.575-3.872-1.43-3.872-3.336 0-1.841 1.598-3.155 3.789-3.155 1.68 0 2.883.477 4.053 1.413l-.758 1.003c-1.071-.871-2.142-1.249-3.328-1.249-1.499 0-2.455.822-2.455 1.873 0 1.101.593 1.709 3.13 2.251" sketch:type="MSShapeGroup"/><path d="M127.592 159.72l-3.344-4.47h-3.295v4.47h-1.301v-11.503h4.959c2.537 0 4.168 1.364 4.168 3.435 0 1.923-1.318 3.04-3.13 3.369l3.542 4.7h-1.598zm-3.081-10.304h-3.559v4.667h3.542c1.73 0 2.965-.888 2.965-2.383 0-1.43-1.087-2.284-2.949-2.284z" sketch:type="MSShapeGroup"/><path d="M143.978 159.917c-3.509 0-5.865-2.744-5.865-5.932s2.389-5.965 5.898-5.965 5.865 2.744 5.865 5.932-2.389 5.965-5.898 5.965zm0-10.698c-2.636 0-4.514 2.103-4.514 4.733 0 2.629 1.911 4.766 4.547 4.766 2.636 0 4.514-2.103 4.514-4.733 0-2.629-1.911-4.766-4.547-4.766z" sketch:type="MSShapeGroup"/><path d="M165.178 159.917c-3.509 0-5.865-2.744-5.865-5.932s2.389-5.965 5.898-5.965 5.865 2.744 5.865 5.932-2.389 5.965-5.898 5.965zm0-10.698c-2.636 0-4.514 2.103-4.514 4.733 0 2.629 1.911 4.766 4.547 4.766 2.636 0 4.514-2.103 4.514-4.733 0-2.629-1.911-4.766-4.547-4.766z" sketch:type="MSShapeGroup"/><path d="M186.679 156.565h-.066l-4.201-6.146v9.301h-1.269v-11.503h1.318l4.201 6.277 4.201-6.277h1.318v11.503h-1.302v-9.318l-4.201 6.163" sketch:type="MSShapeGroup"/><path d="M193.04 134.482c-5.564-.411-10.715-2.672-14.218-5.755-14.012-11.716-24.933-28.159-41.417-54.673-1.03-1.644-2.061-3.7-1.03-4.933 10.303-4.111 25.757-14.799 25.757-34.325 0-14.388-7.181-23.637-17.072-28.775-9.135-4.952-20.857-5.944-32.996-6.02h-71.57c-8.537 0-15.871 1.67-22.002 5.157-6.131 3.486-10.743 8.022-13.837 13.68-3.094 5.658-4.641 11.67-4.641 18.071 0 4.572.845 9.035 2.535 13.408 1.69 4.372 4.183 8.254 7.477 11.655 3.295 3.401 7.392 6.113 12.29 8.142 4.899 2.029 10.413 3.042 16.658 3.042 2.808 0 5.677-.201 8.278-.601v48.551c0 2.686-.572 4.73-1.832 6.13-1.261 1.4-3.192 2.329-5.914 2.786-2.722.457-6.56.686-11.329.686v5.725h83.886v-5.725c-3.468 0-6.205-.229-8.411-.686-2.206-.457-3.889-1.272-5.036-2.443-1.146-1.172-1.51-2.872-1.51-5.101v-43.08c0-4.316.367-4.522 9.64-4.522 8.243 0 11.517 2.055 14.607 6.577 6.388 9.249 14.825 23.431 20.182 31.036 14.63 20.759 25.133 25.898 42.648 25.898 3.915 0 7.209-.411 9.064-1.028 1.03-.822.821-2.467-.209-2.878zm-145.787-68.786c-1.517.571-3.408.857-5.184.857-6.131 0-11.072-3.258-14.883-9.773-3.81-6.515-5.701-13.917-5.701-22.204 0-8.173 1.955-15.117 5.852-20.833 3.896-5.715 9.514-8.573 16.963-8.573.63 0 1.653.057 2.953.171v60.355zm33.164 65.115h-16.474v-124.838s5.395 1.035 7.169 1.486c8.221 2.091 9.305 4.522 9.305 24.048v99.304zm52.66-67.445c-5.976 4.522-13.806 5.344-21.224 5.344-10.509 0-13.555-.411-14.173-1.027-.618-.822-.573-3.083-.573-6.783 0 0 .012-48.004.024-48.394 0-2.285 2.613-5.586 5.812-6.056 1.843-.271 4.3-.223 7.519-.223 22.872 0 32.943 15.416 32.943 31.653 0 13.977-4.765 21.171-10.328 25.487z" sketch:type="MSShapeGroup"/></g></svg>