<svg width="182" height="150" viewBox="0 0 182 150" xmlns="http://www.w3.org/2000/svg" xmlns:sketch="http://www.bohemiancoding.com/sketch/ns"><g sketch:type="MSLayerGroup" fill="#333"><path d="M30.396 145.932h-2.627v3.805h-1.221v-10.784h4.049c2.442 0 4.049 1.294 4.049 3.436 0 2.342-1.948 3.543-4.25 3.543zm.108-5.854h-2.735v4.745h2.674c1.793 0 2.967-.955 2.967-2.388 0-1.556-1.159-2.357-2.905-2.357zM51.045 149.737l-3.138-4.19h-3.091v4.19h-1.221v-10.784h4.652c2.38 0 3.91 1.279 3.91 3.22 0 1.802-1.236 2.85-2.937 3.158l3.323 4.406h-1.499zm-2.89-9.66h-3.338v4.375h3.323c1.623 0 2.782-.832 2.782-2.234 0-1.34-1.02-2.141-2.767-2.141zM69.45 140.062h-6.6v3.682h5.904v1.109h-5.904v3.775h6.677v1.109h-7.898v-10.784h7.821v1.109M82.701 143.76c2.411.524 3.524 1.402 3.524 3.066 0 1.864-1.546 3.066-3.694 3.066-1.716 0-3.122-.57-4.42-1.726l.757-.894c1.128 1.017 2.21 1.525 3.709 1.525 1.453 0 2.411-.755 2.411-1.849 0-1.017-.541-1.587-2.813-2.064-2.488-.539-3.632-1.34-3.632-3.127 0-1.726 1.499-2.958 3.555-2.958 1.576 0 2.704.447 3.802 1.325l-.711.94c-1.005-.816-2.009-1.171-3.122-1.171-1.406 0-2.303.77-2.303 1.756 0 1.032.556 1.602 2.937 2.111M99.404 143.76c2.411.524 3.524 1.402 3.524 3.066 0 1.864-1.545 3.066-3.694 3.066-1.715 0-3.122-.57-4.42-1.726l.757-.894c1.128 1.017 2.21 1.525 3.709 1.525 1.453 0 2.411-.755 2.411-1.849 0-1.017-.541-1.587-2.813-2.064-2.488-.539-3.632-1.34-3.632-3.127 0-1.726 1.499-2.958 3.555-2.958 1.576 0 2.704.447 3.802 1.325l-.711.94c-1.005-.816-2.009-1.171-3.122-1.171-1.406 0-2.303.77-2.303 1.756 0 1.032.556 1.602 2.937 2.111" sketch:type="MSShapeGroup"/><path d="M119.699 149.737l-3.138-4.19h-3.091v4.19h-1.221v-10.784h4.652c2.38 0 3.91 1.279 3.91 3.22 0 1.802-1.237 2.85-2.937 3.158l3.323 4.406h-1.499zm-2.89-9.66h-3.338v4.375h3.323c1.623 0 2.782-.832 2.782-2.234 0-1.34-1.02-2.141-2.767-2.141zM135.072 149.922c-3.292 0-5.502-2.573-5.502-5.562 0-2.989 2.241-5.593 5.533-5.593 3.292 0 5.502 2.573 5.502 5.562 0 2.989-2.241 5.593-5.533 5.593zm0-10.029c-2.473 0-4.235 1.972-4.235 4.437 0 2.465 1.793 4.468 4.266 4.468s4.235-1.972 4.235-4.437c0-2.465-1.793-4.468-4.266-4.468zM154.96 149.922c-3.292 0-5.502-2.573-5.502-5.562 0-2.989 2.241-5.593 5.533-5.593 3.292 0 5.502 2.573 5.502 5.562 0 2.989-2.241 5.593-5.533 5.593zm0-10.029c-2.473 0-4.235 1.972-4.235 4.437 0 2.465 1.793 4.468 4.266 4.468s4.235-1.972 4.235-4.437c0-2.465-1.793-4.468-4.266-4.468zM175.132 146.779h-.062l-3.941-5.762v8.72h-1.19v-10.784h1.237l3.941 5.885 3.941-5.885h1.237v10.784h-1.221v-8.735l-3.941 5.777" sketch:type="MSShapeGroup"/><path d="M181.1 126.077c-5.219-.386-10.052-2.505-13.338-5.395-13.145-10.983-23.39-26.399-38.855-51.256-.967-1.542-1.933-3.468-.967-4.625 9.666-3.854 24.164-13.874 24.164-32.18 0-13.488-6.737-22.16-16.016-26.977-8.57-4.643-19.567-5.573-30.955-5.644h-67.143c-8.009 0-14.89 1.566-20.641 4.834-5.751 3.269-10.079 7.521-12.981 12.825-2.903 5.305-4.354 10.94-4.354 16.942 0 4.287.793 8.471 2.378 12.57 1.586 4.099 3.924 7.738 7.015 10.926 3.091 3.188 6.934 5.731 11.53 7.633 4.596 1.902 9.769 2.852 15.628 2.852 2.634 0 5.326-.189 7.766-.564v45.517c0 2.518-.536 4.434-1.719 5.747-1.183 1.313-2.995 2.183-5.548 2.612-2.553.429-6.154.643-10.628.643v5.367h78.697v-5.367c-3.254 0-5.821-.214-7.891-.643-2.069-.429-3.649-1.192-4.724-2.291-1.075-1.098-1.416-2.693-1.416-4.782v-40.387c0-4.047.344-4.239 9.043-4.239 7.733 0 10.804 1.927 13.704 6.166 5.993 8.671 13.908 21.967 18.934 29.097 13.725 19.462 23.578 24.279 40.01 24.279 3.673 0 6.763-.385 8.503-.963.967-.771.77-2.312-.196-2.698zm-136.769-64.487c-1.423.536-3.197.804-4.864.804-5.752 0-10.387-3.054-13.962-9.163-3.575-6.108-5.348-13.047-5.348-20.817 0-7.662 1.834-14.173 5.49-19.531 3.655-5.358 8.926-8.037 15.914-8.037.591 0 1.551.054 2.771.161v56.583zm31.113 61.046h-15.455v-117.036s5.061.971 6.725 1.393c7.713 1.96 8.729 4.239 8.729 22.545v93.097zm49.403-63.23c-5.606 4.239-12.952 5.01-19.911 5.01-9.859 0-12.716-.385-13.296-.963-.58-.771-.538-2.891-.538-6.359 0 0 .011-45.004.023-45.37 0-2.142 2.452-5.236 5.452-5.678 1.729-.254 4.034-.209 7.054-.209 21.457 0 30.905 14.452 30.905 29.675 0 13.103-4.47 19.847-9.689 23.894z" sketch:type="MSShapeGroup"/></g></svg>